<svg id="visual" viewBox="0 0 960 540" width="960" height="540" xmlns="http://www.w3.org/2000/svg" xmlns:xlink="http://www.w3.org/1999/xlink" version="1.1"><rect x="0" y="0" width="960" height="540" fill="#001220"></rect><defs><linearGradient id="grad1_0" x1="43.8%" y1="100%" x2="100%" y2="0%"><stop offset="14.444444444444446%" stop-color="#001220" stop-opacity="1"></stop><stop offset="85.55555555555554%" stop-color="#001220" stop-opacity="1"></stop></linearGradient></defs><defs><linearGradient id="grad2_0" x1="0%" y1="100%" x2="56.3%" y2="0%"><stop offset="14.444444444444446%" stop-color="#001220" stop-opacity="1"></stop><stop offset="85.55555555555554%" stop-color="#001220" stop-opacity="1"></stop></linearGradient></defs><g transform="translate(960, 540)"><path d="M-378 0C-338.8 -33.9 -299.6 -67.8 -288.3 -119.4C-276.9 -171 -293.6 -240.4 -267.3 -267.3C-241 -294.2 -171.9 -278.7 -120.2 -290.1C-68.5 -301.5 -34.2 -339.7 0 -378L0 0Z" fill="#FBAE3C"></path></g><g transform="translate(0, 0)"><path d="M378 0C376.4 52 374.7 104 349.2 144.7C323.7 185.3 274.4 214.5 231.2 231.2C188.1 247.9 151.2 252 113.7 274.4C76.2 296.8 38.1 337.4 0 378L0 0Z" fill="#FBAE3C"></path></g></svg>